<mxfile host="Electron" agent="Mozilla/5.0 (Windows NT 10.0; Win64; x64) AppleWebKit/537.36 (KHTML, like Gecko) draw.io/27.0.9 Chrome/134.0.6998.205 Electron/35.4.0 Safari/537.36" version="27.0.9">
  <diagram name="Mapa de Objetivos - ManiClick" id="molic-maniclick-objetivos">
    <mxGraphModel dx="1090" dy="593" grid="1" gridSize="10" guides="1" tooltips="1" connect="1" arrows="1" fold="1" page="1" pageScale="1" pageWidth="1600" pageHeight="1200" math="0" shadow="0">
      <root>
        <mxCell id="0" />
        <mxCell id="1" parent="0" />
        <mxCell id="2" value="Objetivo Geral:&#xa;Desenvolver uma plataforma online para divulgação de serviços de manicure, com agendamento integrado, avaliações e painel administrativo, facilitando o contato entre profissionais e clientes e fortalecendo pequenos negócios do setor de beleza." style="rounded=1;whiteSpace=wrap;html=1;fillColor=#ffe3f0;strokeColor=#d63384;fontSize=14;fontStyle=1;fontColor=#000000;" parent="1" vertex="1">
          <mxGeometry x="350" y="60" width="500" height="100" as="geometry" />
        </mxCell>
        <mxCell id="3" value="OE1: Catálogo de serviços detalhado, preços e exemplos visuais" style="rounded=1;whiteSpace=wrap;html=1;fillColor=#fff;strokeColor=#d63384;fontColor=#000000;" parent="1" vertex="1">
          <mxGeometry x="60" y="240" width="260" height="60" as="geometry" />
        </mxCell>
        <mxCell id="4" value="OE2: Agendamento online de horários, com confirmação automática e controle de disponibilidade" style="rounded=1;whiteSpace=wrap;html=1;fillColor=#fff;strokeColor=#d63384;fontColor=#000000;" parent="1" vertex="1">
          <mxGeometry x="350" y="240" width="380" height="60" as="geometry" />
        </mxCell>
        <mxCell id="5" value="OE3: Avaliações e depoimentos de clientes" style="rounded=1;whiteSpace=wrap;html=1;fillColor=#fff;strokeColor=#d63384;fontColor=#000000;" parent="1" vertex="1">
          <mxGeometry x="780" y="240" width="260" height="60" as="geometry" />
        </mxCell>
        <mxCell id="6" value="OE4: Contato direto via formulário, WhatsApp e redes sociais" style="rounded=1;whiteSpace=wrap;html=1;fillColor=#fff;strokeColor=#d63384;fontColor=#000000;" parent="1" vertex="1">
          <mxGeometry x="60" y="340" width="260" height="60" as="geometry" />
        </mxCell>
        <mxCell id="7" value="OE5: Experiência acessível e responsiva para diferentes perfis de usuários" style="rounded=1;whiteSpace=wrap;html=1;fillColor=#fff;strokeColor=#d63384;fontColor=#000000;" parent="1" vertex="1">
          <mxGeometry x="350" y="340" width="380" height="60" as="geometry" />
        </mxCell>
        <mxCell id="8" value="OE6: Painel administrativo simples para gerenciamento de agenda, clientes e serviços" style="rounded=1;whiteSpace=wrap;html=1;fillColor=#fff;strokeColor=#d63384;fontColor=#000000;" parent="1" vertex="1">
          <mxGeometry x="780" y="340" width="260" height="60" as="geometry" />
        </mxCell>
        <mxCell id="9" style="edgeStyle=orthogonalEdgeStyle;endArrow=block;strokeColor=#d63384;" parent="1" source="2" target="3" edge="1">
          <mxGeometry relative="1" as="geometry" />
        </mxCell>
        <mxCell id="10" style="edgeStyle=orthogonalEdgeStyle;endArrow=block;strokeColor=#d63384;" parent="1" source="2" target="4" edge="1">
          <mxGeometry relative="1" as="geometry" />
        </mxCell>
        <mxCell id="11" style="edgeStyle=orthogonalEdgeStyle;endArrow=block;strokeColor=#d63384;" parent="1" source="2" target="5" edge="1">
          <mxGeometry relative="1" as="geometry" />
        </mxCell>
        <mxCell id="12" style="edgeStyle=orthogonalEdgeStyle;endArrow=block;strokeColor=#d63384;" parent="1" source="2" target="6" edge="1">
          <mxGeometry relative="1" as="geometry" />
        </mxCell>
        <mxCell id="13" style="edgeStyle=orthogonalEdgeStyle;endArrow=block;strokeColor=#d63384;" parent="1" source="2" target="7" edge="1">
          <mxGeometry relative="1" as="geometry" />
        </mxCell>
        <mxCell id="14" style="edgeStyle=orthogonalEdgeStyle;endArrow=block;strokeColor=#d63384;fontColor=#000000;" parent="1" source="2" target="8" edge="1">
          <mxGeometry relative="1" as="geometry" />
        </mxCell>
      </root>
    </mxGraphModel>
  </diagram>
</mxfile>
